<?xml version="1.0" encoding="utf-8"?>
<!-- Generator: Adobe Illustrator 21.0.2, SVG Export Plug-In . SVG Version: 6.00 Build 0)  -->
<svg version="1.1" id="Layer_1" xmlns="http://www.w3.org/2000/svg" xmlns:xlink="http://www.w3.org/1999/xlink" x="0px" y="0px"
	 viewBox="0 0 512 512" style="enable-background:new 0 0 512 512;" xml:space="preserve">
<style type="text/css">
	.st0{fill:#D95F02;}
</style>
<g id="sXs8mT.tif">
	<g>
		<path class="st0" d="M6,430.8c0-60.5,0-121.1,0-181.6c0.6-0.7,1.4-1.3,1.7-2.1c10.8-29,29-41.8,59.6-41.8c53.7,0,107.3,0,161,0
			c3.8,0,7.5,0,12,0c0-4.3-0.1-7.2,0-10c1.4-48.6,25.1-74.6,73.4-80.9c10.6-1.4,21.1-3.3,31.5-5.9c13-3.2,22-11.4,25-24.6
			c2.4-10.7,3.4-21.7,4.8-32.6c1.4-10.3,6.9-15.5,16.6-15c8.7,0.4,14.9,6.3,14.5,16c-0.4,11.6-1.3,23.4-3.7,34.7
			c-6,28.8-23.9,46.9-52.8,53.3c-13,2.9-26.2,4.4-39.2,7c-25.2,5.1-33.4,13.8-37.2,39.3c-0.9,5.7-1,11.5-1.6,18.7c4.4,0,8.2,0,12,0
			c55,0,109.9-0.1,164.9,0c25,0,45,13.9,54.1,37.2c0.9,2.3,2.2,4.5,3.3,6.7c0,60.5,0,121.1,0,181.6c-2.5,5.2-4.8,10.4-7.5,15.4
			c-8.9,16.6-24.5,23.9-41.3,29.5c-134.1,0-268.2,0-402.3,0c-7.3-3.1-14.9-5.8-21.9-9.5C18.7,458.6,12.1,444.9,6,430.8z
			 M122.8,415.3c89.1,0,177.6,0,266.1,0c0-12.4,0-23.9,0-35.6c-89.1,0-177.4,0-266.1,0C122.8,392,122.8,403.5,122.8,415.3z
			 M351.2,322.1c-12.5,0-24.3,0-35.9,0c0,12.5,0,24.3,0,36c12.3,0,23.9,0,35.9,0C351.2,346.1,351.2,334.5,351.2,322.1z M256.7,321.9
			c0,12.6,0,24.3,0,35.8c12.7,0,24.8,0,36.8,0c0-12.3,0-23.8,0-35.8C281,321.9,269.2,321.9,256.7,321.9z M198.9,358
			c12.6,0,24.7,0,37,0c0-12.3,0-24.1,0-35.9c-12.7,0-24.8,0-37,0C198.9,334.4,198.9,346,198.9,358z M141.4,322c0,12.5,0,24.3,0,35.8
			c12.7,0,24.8,0,36.9,0c0-12.3,0-23.8,0-35.8C165.8,322,154,322,141.4,322z M83.7,357.9c12.8,0,24.9,0,36.8,0c0-12.5,0-24.2,0-35.9
			c-12.6,0-24.4,0-36.8,0C83.7,334,83.7,345.5,83.7,357.9z M446.9,300.4c0-12.4,0-23.9,0-35.9c-12.3,0-24,0-36.1,0
			c0,12.2,0,23.8,0,35.9C422.9,300.4,434.4,300.4,446.9,300.4z M295.6,300.2c12.3,0,24.1,0,36,0c0-12.3,0-23.9,0-35.6
			c-12.3,0-24.1,0-36,0C295.6,276.9,295.6,288.5,295.6,300.2z M216.4,264.3c-12.3,0-23.9,0-35.9,0c0,12.3,0,24.1,0,36.1
			c12.2,0,23.8,0,35.9,0C216.4,288.4,216.4,276.9,216.4,264.3z M373,321.8c0,12.6,0,24.4,0,36.2c12.4,0,23.9,0,35.5,0
			c0-12.4,0-24.1,0-36.2C396.4,321.8,385.1,321.8,373,321.8z M65.4,379.4c0,12.7,0,24.5,0,36.2c12.3,0,23.9,0,35.5,0
			c0-12.4,0-24.2,0-36.2C88.8,379.4,77.5,379.4,65.4,379.4z M101.1,264.6c-12.3,0-24.1,0-36,0c0,12.3,0,23.9,0,35.5
			c12.3,0,24.1,0,36,0C101.1,287.8,101.1,276.3,101.1,264.6z M411.1,379.4c0,12.7,0,24.5,0,36.2c12.3,0,23.9,0,35.5,0
			c0-12.4,0-24.2,0-36.2C434.5,379.4,423.2,379.4,411.1,379.4z M389.7,300.5c0-11.2,0.2-21.5-0.2-31.8c-0.1-1.6-2.3-4.4-3.6-4.5
			c-10.8-0.4-21.7-0.2-32.5-0.2c0,13.1,0,24.6,0,36.5C365.5,300.5,376.8,300.5,389.7,300.5z M237.9,300c12.6,0,24.3,0,35.8,0
			c0-12.4,0-23.9,0-35.4c-12.3,0-23.8,0-35.8,0C237.9,276.6,237.9,287.9,237.9,300z M123.1,264.4c0,12.5,0,24.2,0,35.8
			c12.4,0,23.9,0,35.5,0c0-12.3,0-23.8,0-35.8C146.6,264.4,135.4,264.4,123.1,264.4z"/>
	</g>
</g>
</svg>
